<?xml version="1.0" encoding="UTF-8" standalone="no"?><!DOCTYPE svg PUBLIC "-//W3C//DTD SVG 1.1//EN" "http://www.w3.org/Graphics/SVG/1.1/DTD/svg11.dtd"><svg width="100%" height="100%" viewBox="0 0 676 816" version="1.1" xmlns="http://www.w3.org/2000/svg" xmlns:xlink="http://www.w3.org/1999/xlink" xml:space="preserve" xmlns:serif="http://www.serif.com/" style="fill-rule:evenodd;clip-rule:evenodd;"><g><path d="M176.92,95.314l-168.25,99.167c-2.602,1.522 -4.207,4.319 -4.208,7.333l0,29.458c0.001,1.879 1.005,3.616 2.625,4.542l173.125,99.958c2.163,1.245 4.958,0.583 6.333,-1.5c9.722,-14.889 23.972,-26.056 42.75,-33.5c0.242,-0.091 0.465,-0.224 0.661,-0.392c0.936,-0.805 1.031,-2.252 0.211,-3.205c-0.166,-0.193 -0.362,-0.357 -0.581,-0.486l-140.125,-80.875c-0.081,-0.051 -0.156,-0.111 -0.223,-0.179c-0.466,-0.471 -0.476,-1.229 -0.021,-1.68c0.073,-0.072 0.154,-0.133 0.244,-0.183l155.125,-90.083" style="fill:none;fill-rule:nonzero;stroke:#90d1d2;stroke-width:2.08px;"/><path d="M244.587,123.689l61.125,-36.083c0.215,-0.124 0.46,-0.19 0.708,-0.19c0.77,0 1.407,0.628 1.417,1.398l-0,174.5c-0,0.007 -0,0.015 -0,0.022c0,1.189 0.978,2.167 2.167,2.167c0.448,0 0.884,-0.139 1.25,-0.397c15.083,-10.417 32.111,-16.375 51.083,-17.875c2.652,-0.216 4.717,-2.464 4.708,-5.125l0,-152.25c-0.002,-0.119 0.012,-0.238 0.041,-0.354c0.189,-0.754 0.984,-1.214 1.76,-1.019c0.112,0.028 0.221,0.069 0.324,0.123l36.875,19.875" style="fill:none;fill-rule:nonzero;stroke:#b2dcc1;stroke-width:2.08px;"/><path d="M406.045,108.481l178.458,105.083c0.473,0.287 0.763,0.801 0.763,1.354c0,0.553 -0.29,1.068 -0.763,1.354c-37.583,22.444 -71.806,42.444 -102.667,60c-4.25,2.417 -8.139,5.333 -11.667,8.75c-1.408,1.353 -1.464,3.621 -0.125,5.042c11.194,11.861 18.764,25.417 22.708,40.667c0.468,1.792 2.099,3.051 3.951,3.051c0.72,0 1.427,-0.19 2.049,-0.551l114.375,-66.042c0.203,-0.117 0.433,-0.179 0.668,-0.179c0.731,0 1.333,0.602 1.333,1.333c0,0.018 -0,0.036 -0.001,0.054l-1.083,30.083" style="fill:none;fill-rule:nonzero;stroke:#c9e4b2;stroke-width:2.08px;"/><path d="M614.045,298.481l0.167,130.125" style="fill:none;fill-rule:nonzero;stroke:#b2dcc1;stroke-width:4.17px;"/><path d="M614.212,428.606l0.458,116.708c-0.002,3.529 -1.895,6.805 -4.958,8.583l-208.5,120.375c-2.029,1.152 -3.288,3.32 -3.292,5.667l0,60.792c0.011,0.884 0.741,1.605 1.625,1.605c0.293,0 0.582,-0.079 0.833,-0.23l266.375,-153.75c2.684,-1.578 4.336,-4.454 4.333,-7.542l0.208,-129.458" style="fill:none;fill-rule:nonzero;stroke:#90d1d2;stroke-width:2.08px;"/><path d="M671.295,451.356l0.042,-140.542" style="fill:none;fill-rule:nonzero;stroke:#b2dcc1;stroke-width:2.08px;"/><path d="M671.337,310.814l0.042,-108.292c0.003,-4.014 -2.127,-7.734 -5.583,-9.75l-277.75,-161.75" style="fill:none;fill-rule:nonzero;stroke:#c9e4b2;stroke-width:2.08px;"/><path d="M388.045,31.023l-46.333,-25.75c-2.379,-1.318 -5.275,-1.302 -7.625,0.042l-157.167,90" style="fill:none;fill-rule:nonzero;stroke:#b2dcc1;stroke-width:2.08px;"/><path d="M388.045,31.023c9.083,25.361 15.083,51.181 18,77.458" style="fill:none;fill-rule:nonzero;stroke:#7cc174;stroke-width:2.08px;"/><path d="M244.587,123.689c-20.694,-14.417 -43.25,-23.875 -67.667,-28.375" style="fill:none;fill-rule:nonzero;stroke:#43ae94;stroke-width:2.08px;"/><path d="M671.337,310.814l-1.25,-4.583c-0.33,-1.155 -1.322,-1.998 -2.5,-2.125l-53.542,-5.625" style="fill:none;fill-rule:nonzero;stroke:#7cc174;stroke-width:2.08px;"/><path d="M671.295,451.356c-19.5,-5.528 -38.528,-13.111 -57.083,-22.75" style="fill:none;fill-rule:nonzero;stroke:#43ae94;stroke-width:2.08px;"/><path d="M232.045,651.231c-0.618,-0.357 -1.382,-0.357 -2,0l-105.625,60.958c-0.304,0.176 -0.649,0.268 -1,0.268c-1.088,0 -1.987,-0.888 -2,-1.976l0,-124.292c0.006,-0.72 -0.376,-1.39 -1,-1.75l-57.208,-33c-0.624,-0.36 -1.006,-1.03 -1,-1.75l0,-242.5c0.006,-0.72 -0.376,-1.39 -1,-1.75l-53.917,-31.083c-0.304,-0.176 -0.649,-0.268 -1,-0.268c-1.088,0 -1.987,0.888 -2,1.976l0,307.792c-0.006,0.72 0.376,1.39 1,1.75l57.5,33.208c0.624,0.36 1.006,1.03 1,1.75l0,188.917c0.013,1.088 0.912,1.976 2,1.976c0.351,0 0.696,-0.092 1,-0.268l162.292,-93.667c0.618,-0.357 1.382,-0.357 2,0l105.958,61.167c0.618,0.357 1.382,0.357 2,0l26.458,-15.292c0.624,-0.36 1.006,-1.03 1,-1.75l0,-223.833c-0,-1.097 -0.903,-2 -2,-2l-54.292,0c-1.097,0 -2,0.903 -2,2l0,153.917c-0.013,1.088 -0.912,1.976 -2,1.976c-0.351,0 -0.696,-0.092 -1,-0.268l-73.167,-42.208" style="fill:none;fill-rule:nonzero;stroke:#9fb3bd;stroke-width:2.08px;"/><path d="M292.545,326.814c-9.333,-0.167 -19.458,-3.625 -26.958,-3.792c-33.458,-0.875 -61,25.042 -64.75,58.083c-0.154,1.364 -1.105,2.512 -2.417,2.917l-23.875,7.667" style="fill:none;fill-rule:nonzero;stroke:#b2dcc1;stroke-width:2.08px;"/><path d="M174.545,391.689c-33.833,20.583 -42.417,67.667 -13.292,96.542c11.778,11.694 28.319,17.667 49.625,17.917c32,0.333 63.625,-0.125 94.875,-1.375" style="fill:none;fill-rule:nonzero;stroke:#90d1d2;stroke-width:2.08px;"/><path d="M305.753,504.773c59.861,2.389 120.069,2.042 180.625,-1.042" style="fill:none;fill-rule:nonzero;stroke:#b2dcc1;stroke-width:2.08px;"/><path d="M486.378,503.731c16.306,-8.139 28.986,-19.764 38.042,-34.875c21.125,-35.208 5.125,-80.458 -31.625,-96.792c-3.694,-1.667 -10.403,-4.292 -20.125,-7.875c-1.288,-0.486 -2.226,-1.63 -2.458,-3c-6.917,-45.861 -32.028,-73.278 -75.333,-82.25c-29.25,-6.056 -55.139,-0.167 -77.667,17.667c-8.958,7.125 -17.583,20.083 -24.667,30.208" style="fill:none;fill-rule:nonzero;stroke:#c9e4b2;stroke-width:2.08px;"/><path d="M486.378,503.731c-69.861,-55.889 -134.472,-114.861 -193.833,-176.917" style="fill:none;fill-rule:nonzero;stroke:#7cc174;stroke-width:2.08px;"/><path d="M305.753,504.773c-29.306,-33.111 -59.306,-61.75 -90,-85.917c-9.583,-7.556 -23.319,-16.611 -41.208,-27.167" style="fill:none;fill-rule:nonzero;stroke:#43ae94;stroke-width:2.08px;"/><path d="M388.045,31.023c9.083,25.363 15.083,51.179 18,77.458l-36.875,-19.875c-0.975,-0.504 -2.137,0.179 -2.125,1.25l0,152.25c0.008,2.675 -2.042,4.908 -4.708,5.125c-18.971,1.5 -36,7.458 -51.083,17.875c-1.363,0.962 -3.254,0.087 -3.408,-1.571c-0.004,-0.075 -0.008,-0.146 -0.008,-0.221l0,-174.5c-0.013,-1.083 -1.188,-1.75 -2.125,-1.208l-61.125,36.083c-20.696,-14.417 -43.25,-23.875 -67.667,-28.375l157.167,-90c2.354,-1.346 5.242,-1.363 7.625,-0.042l46.333,25.75Z" style="fill:#65b883;fill-rule:nonzero;"/><path d="M671.337,310.814l-1.25,-4.583c-0.329,-1.158 -1.321,-1.996 -2.5,-2.125l-53.542,-5.625l1.083,-30.083c0.042,-1.025 -1.042,-1.712 -1.95,-1.233c-0.017,0.008 -0.033,0.017 -0.05,0.025l-114.375,66.042c-2.333,1.354 -5.317,0.113 -6,-2.5c-3.946,-15.25 -11.513,-28.804 -22.708,-40.667c-1.35,-1.429 -1.292,-3.679 0.125,-5.042c3.529,-3.417 7.417,-6.333 11.667,-8.75c30.863,-17.554 65.083,-37.554 102.667,-60c1.017,-0.617 1.017,-2.092 0,-2.708l-178.458,-105.083c-2.917,-26.279 -8.917,-52.096 -18,-77.458l277.75,161.75c3.458,2.017 5.588,5.733 5.583,9.75l-0.042,108.292Z" style="fill:#92c964;fill-rule:nonzero;"/><path d="M244.587,123.689l-155.125,90.083c-0.775,0.433 -0.775,1.554 0,2.042l140.125,80.875c1.517,0.896 1.525,3.083 0.017,3.937c-0.1,0.058 -0.2,0.104 -0.308,0.146c-18.779,7.446 -33.029,18.612 -42.75,33.5c-1.383,2.096 -4.158,2.754 -6.333,1.5l-173.125,-99.958c-1.621,-0.929 -2.625,-2.658 -2.625,-4.542l0,-29.458c0,-3.017 1.604,-5.808 4.208,-7.333l168.25,-99.167c24.417,4.5 46.971,13.958 67.667,28.375Z" style="fill:#20a3a4;fill-rule:nonzero;"/><path d="M232.045,651.231l73.167,42.208c1.325,0.767 2.983,-0.179 3,-1.708l0,-153.917c0,-1.104 0.896,-2 2,-2l54.292,0c1.104,0 2,0.896 2,2l0,223.833c0.008,0.721 -0.375,1.388 -1,1.75l-26.458,15.292c-0.621,0.358 -1.379,0.358 -2,0l-105.958,-61.167c-0.621,-0.358 -1.379,-0.358 -2,0l-162.292,93.667c-1.325,0.767 -2.983,-0.179 -3,-1.708l0,-188.917c0.008,-0.721 -0.375,-1.387 -1,-1.75l-57.5,-33.208c-0.625,-0.362 -1.008,-1.029 -1,-1.75l0,-307.792c0.017,-1.529 1.675,-2.475 3,-1.708l53.917,31.083c0.625,0.362 1.008,1.029 1,1.75l0,242.5c-0.008,0.721 0.375,1.387 1,1.75l57.208,33c0.625,0.363 1.008,1.029 1,1.75l0,124.292c0.017,1.529 1.675,2.475 3,1.708l105.625,-60.958c0.621,-0.358 1.379,-0.358 2,0Z" style="fill:#3e677b;fill-rule:nonzero;"/><path d="M486.378,503.731c-69.862,-55.888 -134.471,-114.863 -193.833,-176.917c7.083,-10.125 15.708,-23.083 24.667,-30.208c22.529,-17.833 48.417,-23.721 77.667,-17.667c43.304,8.971 68.417,36.388 75.333,82.25c0.233,1.371 1.167,2.513 2.458,3c9.721,3.583 16.429,6.208 20.125,7.875c36.75,16.333 52.75,61.583 31.625,96.792c-9.054,15.112 -21.737,26.737 -38.042,34.875Z" style="fill:#92c964;fill-rule:nonzero;"/><path d="M671.337,310.814l-0.042,140.542c-19.5,-5.529 -38.529,-13.112 -57.083,-22.75l-0.167,-130.125l53.542,5.625c1.179,0.129 2.171,0.967 2.5,2.125l1.25,4.583Z" style="fill:#65b883;fill-rule:nonzero;"/><path d="M292.545,326.814c59.363,62.054 123.971,121.029 193.833,176.917c-60.554,3.083 -120.763,3.429 -180.625,1.042c-29.304,-33.112 -59.304,-61.75 -90,-85.917c-9.583,-7.554 -23.321,-16.613 -41.208,-27.167l23.875,-7.667c1.312,-0.404 2.262,-1.55 2.417,-2.917c3.75,-33.042 31.292,-58.958 64.75,-58.083c7.5,0.167 17.625,3.625 26.958,3.792Z" style="fill:#65b883;fill-rule:nonzero;"/><path d="M174.545,391.689c17.887,10.554 31.625,19.612 41.208,27.167c30.696,24.167 60.696,52.804 90,85.917c-31.25,1.25 -62.875,1.708 -94.875,1.375c-21.304,-0.25 -37.846,-6.221 -49.625,-17.917c-29.125,-28.875 -20.542,-75.958 13.292,-96.542Z" style="fill:#20a3a4;fill-rule:nonzero;"/><path d="M671.295,451.356l-0.208,129.458c0.004,3.092 -1.646,5.962 -4.333,7.542l-266.375,153.75c-1.075,0.642 -2.437,-0.121 -2.458,-1.371l0,-60.796c0.004,-2.35 1.258,-4.513 3.292,-5.667l208.5,-120.375c3.067,-1.779 4.954,-5.05 4.958,-8.583l-0.458,-116.708c18.554,9.637 37.583,17.221 57.083,22.75Z" style="fill:#20a3a4;fill-rule:nonzero;"/></g></svg>