<?xml version="1.0" encoding="UTF-8" standalone="no"?><!DOCTYPE svg PUBLIC "-//W3C//DTD SVG 1.1//EN" "http://www.w3.org/Graphics/SVG/1.1/DTD/svg11.dtd"><svg width="100%" height="100%" viewBox="0 0 1500 360" version="1.1" xmlns="http://www.w3.org/2000/svg" xmlns:xlink="http://www.w3.org/1999/xlink" xml:space="preserve" xmlns:serif="http://www.serif.com/" style="fill-rule:evenodd;clip-rule:evenodd;"><path d="M913.972,257.923c0.017,-0.9 1,-1.442 1.767,-0.979c0.104,0.063 0.196,0.142 0.275,0.229c22.042,24.833 52.625,35.917 86.667,29.833c103.5,-18.458 98.583,-183.667 -1.833,-198.75c-32.75,-4.917 -64.625,5.917 -84.958,32.375c-0.833,1.058 -2.5,0.821 -3,-0.433c-0.079,-0.192 -0.121,-0.4 -0.125,-0.608l-1.083,-97.333c-0.067,-7.55 -6.217,-13.646 -13.792,-13.667l-0.542,0c-8.696,0 -15.767,6.996 -15.833,15.667c-0.638,70 -0.696,133.179 -0.167,189.542c0.138,13.833 -0.054,31.554 -0.583,53.167c-0.667,26.292 33.292,27.5 33.042,1.167c-0.029,-4.029 0.029,-7.429 0.167,-10.208" style="fill:none;fill-rule:nonzero;stroke:#a2adb8;stroke-width:4.17px;"/><path d="M65.68,156.59c-0.375,-4.875 1.292,-10.792 1.167,-17.583c-0.638,-30.112 -0.904,-62.792 -0.792,-98.042c0.125,-40.75 -57.042,-41.583 -57.167,-1.125c-0.279,107.583 -0.362,177.071 -0.25,208.458c0.054,13.029 1.404,21.738 4.042,26.125c9.542,15.917 35.792,17.125 47.875,3.333c8.833,-10.083 6.208,-36.542 6.458,-48.833c0.025,-1.85 0.863,-3.587 2.292,-4.75l17.833,-14.5c1.354,-1.138 3.396,-0.913 4.5,0.5c12.583,16.333 26.625,35.958 42.125,58.875c6.958,10.333 14.667,17.5 26.375,18.25c18.042,1.167 34.125,-10.833 30.875,-29.875c-0.833,-4.75 -4.708,-11.738 -11.625,-20.958c-8.083,-10.696 -23.554,-32.446 -46.417,-65.25c-0.992,-1.433 -0.833,-3.358 0.375,-4.583c13.167,-13.5 25.846,-25.292 38.042,-35.375c38.417,-31.833 -6.542,-67.5 -34.75,-39.5c-21.833,21.696 -44.5,43.679 -68,65.958c-0.971,0.933 -2.588,0.467 -2.913,-0.842c-0.025,-0.092 -0.037,-0.187 -0.046,-0.283" style="fill:none;fill-rule:nonzero;stroke:#90d1d2;stroke-width:4.17px;"/><path d="M256.263,207.256c-0.658,-2.133 0.979,-4.279 3.208,-4.208c32.971,1.167 63.75,2.029 92.333,2.583c13.5,0.25 32.083,0.625 39.833,-10.083c11.208,-15.375 1.125,-48.75 -7.292,-65.375c-14.292,-28.125 -36.292,-42.167 -67.042,-47.25c-34.779,-5.75 -64.471,3.512 -89.083,27.792c-19.292,19.042 -27.292,40.208 -28.667,66.583c-2.221,41.888 11.987,73.346 42.625,94.375c38.667,26.5 100.708,24.167 135,-8.125c20.542,-19.375 -0.667,-43.792 -24.5,-37.833c-1.05,0.275 -2.046,0.725 -2.958,1.333c-3.5,2.471 -10.125,6.292 -19.875,11.458c-28.333,15.042 -64.167,-0.667 -73.583,-31.25" style="fill:none;fill-rule:nonzero;stroke:#90d1d2;stroke-width:4.17px;"/><path d="M474.472,205.048l1.708,-0.917c0.137,-0.054 0.292,-0.083 0.458,-0.083c25.583,1.304 62.096,1.137 109.542,-0.5c18.708,-0.667 26.292,-10.25 25.417,-28.708c-2.25,-48 -34.292,-88.333 -83.625,-92.833c-36.417,-3.292 -67.5,6.917 -91.292,36.667c-13.75,17.167 -21.263,37.196 -22.542,60.083c-5.25,94.833 96.5,138.667 171.25,91.667c17.125,-10.792 20.333,-30.917 2,-42.667c-12.625,-8.042 -27.708,1.167 -38.417,7.833c-31.042,19.292 -67.542,6.083 -75.833,-27.542c-0.292,-1.175 0.254,-2.408 1.333,-3" style="fill:none;fill-rule:nonzero;stroke:#90d1d2;stroke-width:4.17px;"/><path d="M697.305,104.881c-5.333,-19.779 -18.75,-26.737 -40.25,-20.875c-11.946,3.221 -17.875,10.792 -17.792,22.708c0.5,71.387 0.304,135.917 -0.583,193.583c-0.083,5 0.292,12.363 1.125,22.083c1.417,16.75 7.5,27.417 24.583,28.583c20.862,1.388 31.613,-8.279 32.25,-29c0.721,-23.221 0.888,-41.779 0.5,-55.667c-0.038,-1.538 1.604,-2.542 2.958,-1.804c0.15,0.083 0.292,0.183 0.417,0.304c16.833,15.792 31.375,22.833 54.917,23.75c49.667,1.917 85.125,-31.542 93.333,-78.792c6.917,-39.708 -0.333,-74.625 -28.875,-103.542c-32.542,-33 -88.333,-34.25 -119.958,-0.708c-0.854,0.858 -2.304,0.513 -2.625,-0.625" style="fill:none;fill-rule:nonzero;stroke:#90d1d2;stroke-width:4.17px;"/><path d="M1304.263,188.006c0,-56.354 -45.688,-102.042 -102.042,-102.042c-56.354,0 -102.042,45.688 -102.042,102.042c0,56.354 45.688,102.042 102.042,102.042c56.354,0 102.042,-45.688 102.042,-102.042" style="fill:none;fill-rule:nonzero;stroke:#a2adb8;stroke-width:4.17px;"/><path d="M1403.138,204.798c0.137,0 0.279,0.012 0.417,0.042c0.192,0.038 0.383,0.171 0.542,0.375l57.792,75.5c5.113,6.696 14.421,8.487 21.625,4.167l1.042,-0.625c6.733,-3.871 8.4,-12.842 3.5,-18.833l-63.208,-77.583c-1.671,-2.054 -1.654,-5.004 0.042,-7.042l59.208,-70.792c5.054,-6.038 3.646,-15.146 -3,-19.375l-0.833,-0.5c-6.946,-4.692 -16.325,-3.279 -21.583,3.25c-19.137,23.75 -36.958,46.612 -53.458,68.583c-0.667,0.887 -1.362,1.333 -2.083,1.333c-0.696,0 -1.388,-0.446 -2.083,-1.333c-16.471,-21.971 -34.263,-44.846 -53.375,-68.625c-5.258,-6.529 -14.637,-7.942 -21.583,-3.25l-0.833,0.5c-6.658,4.212 -8.088,13.325 -3.042,19.375l59.167,70.833c1.696,2.037 1.713,4.987 0.042,7.042l-63.25,77.542c-4.9,5.992 -3.233,14.962 3.5,18.833l1.042,0.625c7.204,4.321 16.512,2.529 21.625,-4.167l57.833,-75.458c0.171,-0.217 0.379,-0.35 0.583,-0.375c0.112,-0.029 0.238,-0.042 0.375,-0.042" style="fill:none;fill-rule:nonzero;stroke:#a2adb8;stroke-width:4.17px;"/><path d="M974.809,114.706c-37.154,2.075 -65.425,36.763 -63.15,77.479c2.275,40.713 34.242,72.033 71.392,69.954c37.154,-2.075 65.425,-36.763 63.15,-77.479c-2.275,-40.713 -34.242,-72.033 -71.392,-69.954" style="fill:none;fill-rule:nonzero;stroke:#a2adb8;stroke-width:4.17px;"/><path d="M258.722,167.715l80.25,0.25c0.275,0 0.5,-0.225 0.5,-0.5l0,-0.25c0.067,-21.846 -18.042,-39.617 -40.458,-39.708c-22.454,-0.096 -40.725,17.579 -40.792,39.458l0,0.25c0,0.275 0.225,0.5 0.5,0.5" style="fill:none;fill-rule:nonzero;stroke:#90d1d2;stroke-width:4.17px;"/><path d="M513.972,166.423c15.971,0.196 28.904,0.471 38.792,0.833c1.713,0.042 3.004,-1.538 2.625,-3.208c-5.042,-20.792 -19.208,-36.542 -40.958,-36.792c-21.708,-0.25 -36.292,15.125 -41.792,35.792c-0.438,1.667 0.821,3.292 2.542,3.292c9.917,-0.138 22.846,-0.113 38.792,0.083" style="fill:none;fill-rule:nonzero;stroke:#90d1d2;stroke-width:4.17px;"/><path d="M743.413,130.386c-26.117,0.367 -46.946,25.267 -46.521,55.617c0.425,30.346 21.937,54.654 48.054,54.292c26.117,-0.367 46.946,-25.267 46.521,-55.613c-0.425,-30.35 -21.938,-54.658 -48.054,-54.296" style="fill:none;fill-rule:nonzero;stroke:#90d1d2;stroke-width:4.17px;"/><path d="M1198.23,114.44c-38.517,2.021 -68.004,36.688 -65.871,77.429c2.133,40.746 35.088,72.138 73.604,70.121c38.517,-2.021 68.004,-36.688 65.871,-77.429c-2.133,-40.746 -35.088,-72.138 -73.604,-70.121" style="fill:none;fill-rule:nonzero;stroke:#a2adb8;stroke-width:4.17px;"/><path d="M913.972,257.923c-0.138,2.779 -0.196,6.179 -0.167,10.208c0.25,26.333 -33.708,25.125 -33.042,-1.167c0.529,-21.612 0.721,-39.333 0.583,-53.167c-0.529,-56.362 -0.471,-119.542 0.167,-189.542c0.067,-8.671 7.138,-15.667 15.833,-15.667l0.542,0c7.575,0.021 13.725,6.117 13.792,13.667l1.083,97.333c0.029,1.346 1.508,2.154 2.658,1.454c0.179,-0.108 0.338,-0.25 0.467,-0.413c20.333,-26.458 52.208,-37.292 84.958,-32.375c100.417,15.083 105.333,180.292 1.833,198.75c-34.042,6.083 -64.625,-5 -86.667,-29.833c-0.596,-0.675 -1.696,-0.45 -1.979,0.4c-0.042,0.112 -0.058,0.229 -0.062,0.35Zm60.838,-143.217c-37.154,2.075 -65.425,36.763 -63.15,77.479c2.275,40.713 34.242,72.033 71.392,69.954c37.154,-2.075 65.425,-36.763 63.15,-77.479c-2.275,-40.713 -34.242,-72.033 -71.392,-69.954Z" style="fill:#445a71;fill-rule:nonzero;"/><path d="M68.638,157.715c23.5,-22.279 46.167,-44.262 68,-65.958c28.208,-28 73.167,7.667 34.75,39.5c-12.196,10.083 -24.875,21.875 -38.042,35.375c-1.208,1.225 -1.367,3.15 -0.375,4.583c22.862,32.804 38.333,54.554 46.417,65.25c6.917,9.221 10.792,16.208 11.625,20.958c3.25,19.042 -12.833,31.042 -30.875,29.875c-11.708,-0.75 -19.417,-7.917 -26.375,-18.25c-15.5,-22.917 -29.542,-42.542 -42.125,-58.875c-1.104,-1.413 -3.146,-1.638 -4.5,-0.5l-17.833,14.5c-1.429,1.163 -2.267,2.9 -2.292,4.75c-0.25,12.292 2.375,38.75 -6.458,48.833c-12.083,13.792 -38.333,12.583 -47.875,-3.333c-2.638,-4.388 -3.987,-13.096 -4.042,-26.125c-0.112,-31.387 -0.029,-100.875 0.25,-208.458c0.125,-40.458 57.292,-39.625 57.167,1.125c-0.113,35.25 0.154,67.929 0.792,98.042c0.125,6.792 0.087,7.613 0.275,12.629c0.05,1.346 0.183,7.025 1.292,6.263c0.079,-0.054 0.154,-0.117 0.225,-0.183Z" style="fill:#20a3a4;fill-rule:nonzero;"/><path d="M256.263,207.256c9.417,30.583 45.25,46.292 73.583,31.25c9.75,-5.167 16.375,-8.988 19.875,-11.458c0.912,-0.608 1.908,-1.058 2.958,-1.333c23.833,-5.958 45.042,18.458 24.5,37.833c-34.292,32.292 -96.333,34.625 -135,8.125c-30.638,-21.029 -44.846,-52.487 -42.625,-94.375c1.375,-26.375 9.375,-47.542 28.667,-66.583c24.613,-24.279 54.304,-33.542 89.083,-27.792c30.75,5.083 52.75,19.125 67.042,47.25c8.417,16.625 18.5,50 7.292,65.375c-7.75,10.708 -26.333,10.333 -39.833,10.083c-28.583,-0.554 -59.362,-1.417 -92.333,-2.583c-2.229,-0.071 -3.867,2.075 -3.208,4.208Zm2.458,-39.542l80.25,0.25c0.275,0 0.5,-0.225 0.5,-0.5l0,-0.25c0.067,-21.846 -18.042,-39.617 -40.458,-39.708c-22.454,-0.096 -40.725,17.579 -40.792,39.458l0,0.25c0,0.275 0.225,0.5 0.5,0.5Z" style="fill:#20a3a4;fill-rule:nonzero;"/><path d="M474.472,205.048c-1.079,0.592 -1.625,1.825 -1.333,3c8.292,33.625 44.792,46.833 75.833,27.542c10.708,-6.667 25.792,-15.875 38.417,-7.833c18.333,11.75 15.125,31.875 -2,42.667c-74.75,47 -176.5,3.167 -171.25,-91.667c1.279,-22.888 8.792,-42.917 22.542,-60.083c23.792,-29.75 54.875,-39.958 91.292,-36.667c49.333,4.5 81.375,44.833 83.625,92.833c0.875,18.458 -6.708,28.042 -25.417,28.708c-47.446,1.637 -83.958,1.804 -109.542,0.5c-0.167,0 -0.321,0.029 -0.458,0.083l-1.708,0.917Zm39.5,-38.625c15.971,0.196 28.904,0.471 38.792,0.833c1.713,0.042 3.004,-1.538 2.625,-3.208c-5.042,-20.792 -19.208,-36.542 -40.958,-36.792c-21.708,-0.25 -36.292,15.125 -41.792,35.792c-0.438,1.667 0.821,3.292 2.542,3.292c9.917,-0.138 22.846,-0.113 38.792,0.083Z" style="fill:#20a3a4;fill-rule:nonzero;"/><path d="M699.93,105.506c31.625,-33.542 87.417,-32.292 119.958,0.708c28.542,28.917 35.792,63.833 28.875,103.542c-8.208,47.25 -43.667,80.708 -93.333,78.792c-23.542,-0.917 -38.083,-7.958 -54.917,-23.75c-1.117,-1.058 -2.963,-0.513 -3.321,0.988c-0.042,0.167 -0.058,0.342 -0.054,0.512c0.388,13.888 0.221,32.446 -0.5,55.667c-0.637,20.721 -11.388,30.387 -32.25,29c-17.083,-1.167 -23.167,-11.833 -24.583,-28.583c-0.833,-9.721 -1.208,-17.083 -1.125,-22.083c0.887,-57.667 1.083,-122.196 0.583,-193.583c-0.083,-11.917 5.846,-19.488 17.792,-22.708c21.5,-5.862 34.917,1.096 40.25,20.875c0.321,1.138 1.771,1.483 2.625,0.625Zm43.483,24.879c-26.117,0.367 -46.946,25.267 -46.521,55.617c0.425,30.346 21.937,54.654 48.054,54.292c26.117,-0.367 46.946,-25.267 46.521,-55.613c-0.425,-30.35 -21.938,-54.658 -48.054,-54.296Z" style="fill:#20a3a4;fill-rule:nonzero;"/><path d="M1304.263,188.006c0,56.354 -45.688,102.042 -102.042,102.042c-56.354,0 -102.042,-45.688 -102.042,-102.042c0,-56.354 45.688,-102.042 102.042,-102.042c56.354,0 102.042,45.688 102.042,102.042Zm-106.033,-73.567c-38.517,2.021 -68.004,36.688 -65.871,77.429c2.133,40.746 35.088,72.138 73.604,70.121c38.517,-2.021 68.004,-36.688 65.871,-77.429c-2.133,-40.746 -35.088,-72.138 -73.604,-70.121Z" style="fill:#445a71;fill-rule:nonzero;"/><path d="M1403.138,163.298c0.721,0 1.417,-0.446 2.083,-1.333c16.5,-21.971 34.321,-44.833 53.458,-68.583c5.258,-6.529 14.638,-7.942 21.583,-3.25l0.833,0.5c6.646,4.229 8.054,13.337 3,19.375l-59.208,70.792c-1.696,2.037 -1.713,4.987 -0.042,7.042l63.208,77.583c4.9,5.992 3.233,14.962 -3.5,18.833l-1.042,0.625c-7.204,4.321 -16.512,2.529 -21.625,-4.167l-57.792,-75.5c-0.158,-0.204 -0.35,-0.337 -0.542,-0.375c-0.138,-0.029 -0.279,-0.042 -0.417,-0.042c-0.138,0 -0.263,0.012 -0.375,0.042c-0.204,0.025 -0.412,0.158 -0.583,0.375l-57.833,75.458c-5.113,6.696 -14.421,8.487 -21.625,4.167l-1.042,-0.625c-6.733,-3.871 -8.4,-12.842 -3.5,-18.833l63.25,-77.542c1.671,-2.054 1.654,-5.004 -0.042,-7.042l-59.167,-70.833c-5.046,-6.05 -3.617,-15.163 3.042,-19.375l0.833,-0.5c6.946,-4.692 16.325,-3.279 21.583,3.25c19.113,23.779 36.904,46.654 53.375,68.625c0.696,0.887 1.387,1.333 2.083,1.333Z" style="fill:#445a71;fill-rule:nonzero;"/></svg>